<?xml version="1.0" encoding="UTF-8"?>
<svg xmlns="http://www.w3.org/2000/svg" xmlns:xlink="http://www.w3.org/1999/xlink" width="96pt" height="96pt" viewBox="0 0 96 96" version="1.1">
<g id="surface1">
<path style=" stroke:none;fill-rule:evenodd;fill:rgb(0%,0%,0%);fill-opacity:1;" d="M 46.300781 84.800781 C 24.699219 84.800781 11.398438 69.601562 11.398438 50.300781 C 11.398438 27.5 29.5 12.199219 50.101562 12.199219 C 69.800781 12.199219 84.5 24.300781 84.5 43.398438 C 84.5 60.800781 75.300781 67.699219 66.101562 67.699219 C 61.601562 67.699219 57.898438 65.601562 56.300781 62.601562 C 53.199219 65.601562 48.5 67.5 44 67.5 C 33 67.5 27.398438 59.699219 27.398438 50.300781 C 27.398438 38.199219 36.199219 28.398438 49.101562 28.398438 C 52.800781 28.398438 55.800781 29.398438 58.101562 31.101562 L 58.5 29.398438 L 68 29.398438 L 63.300781 51.398438 C 62.398438 55.800781 63.398438 59.300781 67.699219 59.300781 C 73 59.300781 76.101562 54.898438 76.101562 43.199219 C 76.101562 27.601562 63.800781 20.300781 50 20.300781 C 34.5 20.300781 20.199219 31 20.199219 50.300781 C 20.199219 66.101562 30.300781 76.398438 46.300781 76.398438 C 52.300781 76.398438 58.5 75.101562 63.898438 72.300781 L 67.199219 80.398438 C 61 83.199219 52.800781 84.800781 46.300781 84.800781 Z M 45.601562 58.101562 C 48.199219 58.101562 50.800781 57.398438 52.898438 55.300781 L 56.101562 40.5 C 54.300781 38.601562 51.699219 37.699219 49.199219 37.699219 C 42.601562 37.699219 37.800781 42.800781 37.800781 49.5 C 37.800781 54.699219 40.300781 58.101562 45.601562 58.101562 Z M 45.601562 58.101562 "/>
</g>
</svg>
